<?xml version="1.0" encoding="utf-8"?>
<!-- Generator: Adobe Illustrator 16.0.0, SVG Export Plug-In . SVG Version: 6.00 Build 0)  -->
<!DOCTYPE svg PUBLIC "-//W3C//DTD SVG 1.0//EN" "http://www.w3.org/TR/2001/REC-SVG-20010904/DTD/svg10.dtd">
<svg version="1.0" id="Layer_1" xmlns="http://www.w3.org/2000/svg" xmlns:xlink="http://www.w3.org/1999/xlink" x="0px" y="0px"
	 width="2000px" height="2000px" viewBox="0 0 2000 2000" enable-background="new 0 0 2000 2000" xml:space="preserve">
<g>
	<g>
		<path fill="#161416" d="M1986.388,1008.764c0,542.798-439.944,982.871-982.744,982.871c-542.802,0-982.99-440.073-982.99-982.871
			c0-542.8,440.188-982.744,982.99-982.744C1546.443,26.02,1986.388,465.964,1986.388,1008.764z"/>
	</g>
	<g>
		<path d="M1986.388,1008.764c0,542.798-439.944,982.871-982.744,982.871c-542.802,0-982.99-440.073-982.99-982.871
			c0-542.8,440.188-982.744,982.99-982.744C1546.443,26.02,1986.388,465.964,1986.388,1008.764z"/>
	</g>
</g>
<g>
	<path fill="#FFFFFF" d="M994.983,1851.228c-471.734,0-855.521-383.733-855.521-855.411c0-471.625,383.787-855.32,855.521-855.32
		c471.627,0,855.32,383.695,855.32,855.32C1850.303,1467.494,1466.61,1851.228,994.983,1851.228z M994.983,179.38
		c-450.294,0-816.637,366.25-816.637,816.436c0,450.234,366.343,816.527,816.637,816.527c450.183,0,816.435-366.293,816.435-816.527
		C1811.418,545.63,1445.166,179.38,994.983,179.38z"/>
</g>
<g>
	<path fill="#FFFFFF" d="M994.983,1851.228c-471.734,0-855.521-383.733-855.521-855.411c0-471.625,383.787-855.32,855.521-855.32
		c471.627,0,855.32,383.695,855.32,855.32C1850.303,1467.494,1466.61,1851.228,994.983,1851.228z M994.983,179.38
		c-450.294,0-816.637,366.25-816.637,816.436c0,450.234,366.343,816.527,816.637,816.527c450.183,0,816.435-366.293,816.435-816.527
		C1811.418,545.63,1445.166,179.38,994.983,179.38z"/>
</g>
<g>
	<path fill="#FFFFFF" d="M994.983,1851.228c-471.734,0-855.521-383.733-855.521-855.411c0-471.625,383.787-855.32,855.521-855.32
		c471.627,0,855.32,383.695,855.32,855.32C1850.303,1467.494,1466.61,1851.228,994.983,1851.228z M994.983,179.38
		c-450.294,0-816.637,366.25-816.637,816.436c0,450.234,366.343,816.527,816.637,816.527c450.183,0,816.435-366.293,816.435-816.527
		C1811.418,545.63,1445.166,179.38,994.983,179.38z"/>
</g>
<g id="path7_2_">
	<path fill="#FFFFFF" d="M993.579,1242.055l-16.425-23.879c-39.325-57.154-85.002-97.608-129.177-136.719
		c-69.974-61.971-136.068-120.496-136.068-225.519c0-87.297,70.374-158.317,156.878-158.317c49.002,0,94.941,23.604,124.349,62.151
		c29.329-38.547,75.252-62.151,124.302-62.151c86.499,0,156.877,71.021,156.877,158.317c0,100.381-65.6,159.179-135.053,221.427
		c-45.131,40.451-91.795,82.275-129.824,140.43L993.579,1242.055z M868.787,736.504c-65.065,0-117.994,53.577-117.994,119.434
		c0,87.518,54.26,135.574,122.962,196.409c38.214,33.837,80.885,71.63,119.056,121.297c37.638-50.968,81.347-90.146,120.5-125.236
		c68.23-61.15,122.12-109.453,122.12-192.47c0-65.857-52.931-119.434-117.994-119.434c-45.378,0-87.233,27.018-106.633,68.836
		l-17.586,37.902l-17.669-37.865C956.031,763.539,914.124,736.504,868.787,736.504z"/>
</g>
<g>
	<path fill="#FFFFFF" d="M1284.486,1223.792c0,10.741-8.698,19.45-19.441,19.45H716.393c-10.742,0-19.44-8.709-19.44-19.45l0,0
		c0-10.742,8.699-19.434,19.44-19.434h548.652C1275.788,1204.358,1284.486,1213.05,1284.486,1223.792L1284.486,1223.792z"/>
</g>
</svg>
