<?xml version="1.0" encoding="utf-8"?>
<!-- Generator: Adobe Illustrator 16.0.0, SVG Export Plug-In . SVG Version: 6.00 Build 0)  -->
<!DOCTYPE svg PUBLIC "-//W3C//DTD SVG 1.0//EN" "http://www.w3.org/TR/2001/REC-SVG-20010904/DTD/svg10.dtd">
<svg version="1.0" id="Layer_1" xmlns="http://www.w3.org/2000/svg" xmlns:xlink="http://www.w3.org/1999/xlink" x="0px" y="0px"
	 width="59.445px" height="59.441px" viewBox="0 0 59.445 59.441" enable-background="new 0 0 59.445 59.441" xml:space="preserve">
<g>
	<path fill="#161416" d="M29.464,4.638c-13.617,0-24.695,11.075-24.695,24.69c0,13.615,11.079,24.691,24.695,24.691
		c13.614,0,24.69-11.076,24.69-24.691C54.154,15.713,43.078,4.638,29.464,4.638z M37.63,36.808H21.039
		c-0.325,0-0.588-0.262-0.588-0.588c0-0.324,0.263-0.588,0.588-0.588h7.566c-1.115-1.502-2.366-2.636-3.586-3.716
		c-2.116-1.874-4.115-3.644-4.115-6.819c0-2.64,2.128-4.788,4.744-4.788c1.482,0,2.871,0.714,3.761,1.879
		c0.887-1.166,2.274-1.879,3.759-1.879c2.615,0,4.743,2.147,4.743,4.788c0,3.035-1.983,4.812-4.084,6.696
		c-1.251,1.121-2.533,2.297-3.625,3.839h7.429c0.325,0,0.588,0.264,0.588,0.588C38.218,36.546,37.956,36.808,37.63,36.808z"/>
	<path fill="#161416" d="M33.042,30.917c2.062-1.85,3.692-3.31,3.692-5.82c0-1.992-1.601-3.611-3.567-3.611
		c-1.372,0-2.639,0.816-3.225,2.081l-0.532,1.146l-0.534-1.145c-0.59-1.265-1.858-2.082-3.229-2.082
		c-1.968,0-3.568,1.62-3.568,3.611c0,2.646,1.64,4.1,3.718,5.939c1.155,1.023,2.446,2.166,3.6,3.668
		C30.537,33.164,31.858,31.978,33.042,30.917z"/>
	<path fill="#161416" d="M29.726,0C13.312,0,0,13.304,0,29.718s13.312,29.723,29.726,29.723c16.414,0,29.719-13.309,29.719-29.723
		S46.14,0,29.726,0z M29.464,55.195c-14.265,0-25.871-11.604-25.871-25.867c0-14.263,11.606-25.866,25.871-25.866
		c14.262,0,25.865,11.603,25.865,25.866C55.329,43.591,43.726,55.195,29.464,55.195z"/>
</g>
</svg>
