<?xml version="1.0" encoding="utf-8"?>
<!-- Generator: Adobe Illustrator 16.0.0, SVG Export Plug-In . SVG Version: 6.00 Build 0)  -->
<!DOCTYPE svg PUBLIC "-//W3C//DTD SVG 1.0//EN" "http://www.w3.org/TR/2001/REC-SVG-20010904/DTD/svg10.dtd">
<svg version="1.0" id="Layer_1" xmlns="http://www.w3.org/2000/svg" xmlns:xlink="http://www.w3.org/1999/xlink" x="0px" y="0px"
	 width="57px" height="57px" viewBox="0 0 57 57" enable-background="new 0 0 57 57" xml:space="preserve">
<g>
	<g>
		<circle fill="#151316" cx="28.429" cy="28.499" r="28.194"/>
	</g>
	<g>
		<path fill="#FFFFFF" d="M28.185,53.27C14.32,53.27,3.04,41.99,3.04,28.127c0-13.862,11.28-25.14,25.145-25.14
			c13.862,0,25.139,11.277,25.139,25.14C53.323,41.99,42.047,53.27,28.185,53.27z M28.185,5.312
			c-12.584,0-22.821,10.235-22.821,22.816c0,12.582,10.237,22.818,22.821,22.818C40.765,50.945,51,40.709,51,28.127
			C51,15.547,40.765,5.312,28.185,5.312z"/>
	</g>
	<g>
		<path fill="#FFFFFF" d="M28.185,53.27C14.32,53.27,3.04,41.99,3.04,28.127c0-13.862,11.28-25.14,25.145-25.14
			c13.862,0,25.139,11.277,25.139,25.14C53.323,41.99,42.047,53.27,28.185,53.27z M28.185,5.312
			c-12.584,0-22.821,10.235-22.821,22.816c0,12.582,10.237,22.818,22.821,22.818C40.765,50.945,51,40.709,51,28.127
			C51,15.547,40.765,5.312,28.185,5.312z"/>
	</g>
	<g>
		<path fill="#FFFFFF" d="M28.185,53.27C14.32,53.27,3.04,41.99,3.04,28.127c0-13.862,11.28-25.14,25.145-25.14
			c13.862,0,25.139,11.277,25.139,25.14C53.323,41.99,42.047,53.27,28.185,53.27z M28.185,5.312
			c-12.584,0-22.821,10.235-22.821,22.816c0,12.582,10.237,22.818,22.821,22.818C40.765,50.945,51,40.709,51,28.127
			C51,15.547,40.765,5.312,28.185,5.312z"/>
	</g>
	<g id="path7_1_">
		<path fill="#FFFFFF" d="M28.157,36.275l-0.981-1.428c-1.086-1.578-2.368-2.713-3.608-3.811c-2.112-1.871-4.107-3.638-4.107-6.922
			c0-2.838,2.29-5.146,5.104-5.146c1.349,0,2.625,0.548,3.566,1.476c0.939-0.927,2.216-1.476,3.566-1.476
			c2.814,0,5.104,2.308,5.104,5.146c0,3.149-1.979,4.924-4.075,6.801c-1.265,1.135-2.574,2.309-3.621,3.908L28.157,36.275z
			 M24.564,21.293c-1.533,0-2.781,1.266-2.781,2.822c0,2.238,1.395,3.473,3.324,5.182c0.959,0.85,2.013,1.783,3.006,2.959
			c0.993-1.215,2.077-2.188,3.062-3.07c1.916-1.718,3.302-2.959,3.302-5.07c0-1.557-1.248-2.822-2.78-2.822
			c-1.067,0-2.053,0.637-2.512,1.625l-1.05,2.265L27.08,22.92C26.618,21.932,25.631,21.293,24.564,21.293z"/>
	</g>
	<g>
		<path fill="#FFFFFF" d="M36.489,34.666c0,0.309-0.25,0.559-0.558,0.559H20.193c-0.309,0-0.558-0.25-0.558-0.559l0,0
			c0-0.307,0.25-0.557,0.558-0.557h15.738C36.239,34.109,36.489,34.359,36.489,34.666L36.489,34.666z"/>
	</g>
</g>
</svg>
